<svg width="12" height="10" fill="none" xmlns="http://www.w3.org/2000/svg"><path fill-rule="evenodd" clip-rule="evenodd" d="M5.85 9.919a21.874 21.874 0 01-3.804-2.605 6.607 6.607 0 01-1.81-2.539C-.444 2.917.35.79 2.57.16 3.74-.17 5.014.018 5.998.667 6.982.02 8.256-.17 9.424.16c2.221.63 3.02 2.757 2.341 4.615a6.607 6.607 0 01-1.81 2.539 21.874 21.874 0 01-3.803 2.605L6.003 10l-.154-.081z" fill="#fff"/><path fill-rule="evenodd" clip-rule="evenodd" d="M8.362 2.252c.672.189 1.15.72 1.21 1.345l-1.21-1.345z" fill="#fff"/></svg>