<svg width="131" height="28" fill="none" xmlns="http://www.w3.org/2000/svg"><path d="M59.676 20.3H57.7L55.677 8.43l-5.376 11.48h-.51L44.413 8.451 42.392 20.3h-2l2.622-15.19h1.866l5.155 11.154L55.189 5.11h1.91l2.577 15.19zm2.511 0V18h2.178v2.3h-2.178zm29.772 0h-1.977L87.96 8.43l-5.376 11.48h-.511L76.697 8.451 74.674 20.3h-2l2.622-15.19h1.866l5.154 11.154L87.471 5.11h1.91L91.96 20.3zm3.133 0V5.11h1.933V20.3h-1.933zm16.691-15.19h1.91V20.3h-1.644l-8.864-11.848V20.3h-1.888V5.11h1.755l8.731 11.718V5.11zm11.33 0c2.281 0 4.162.716 5.643 2.148 1.496 1.433 2.244 3.248 2.244 5.447s-.748 4.014-2.244 5.447c-1.481 1.432-3.362 2.148-5.643 2.148h-5.176V5.11h5.176zm-.066 13.41c1.747 0 3.177-.55 4.287-1.649 1.111-1.1 1.667-2.488 1.667-4.166 0-1.114-.252-2.112-.756-2.995a5.294 5.294 0 00-2.11-2.061c-.904-.506-1.933-.76-3.088-.76h-3.177v11.632h3.177zM14.333 17.494c7.916 0 14.333-1.568 14.333-3.502 0-1.934-6.417-3.502-14.333-3.502S0 12.058 0 13.992c0 1.934 6.417 3.502 14.333 3.502zm0-9.634c7.916 0 14.333-.78 14.333-1.743 0-.963-6.417-1.743-14.333-1.743S0 5.154 0 6.117C0 7.079 6.417 7.86 14.333 7.86zm0-6.117c7.916 0 14.333-.39 14.333-.871C28.666.39 22.249 0 14.333 0S0 .39 0 .872c0 .481 6.417.871 14.333.871zm0 21.883c7.916 0 14.333-.78 14.333-1.743 0-.962-6.417-1.743-14.333-1.743S0 20.92 0 21.883c0 .963 6.417 1.743 14.333 1.743zm0 4.374c7.916 0 14.333-.39 14.333-.872 0-.481-6.417-.871-14.333-.871S0 26.647 0 27.128C0 27.61 6.417 28 14.333 28z" fill="#0C0C0D"/></svg>